<?xml version="1.0" encoding="utf-8"?>
<!-- Generator: Adobe Illustrator 17.1.0, SVG Export Plug-In . SVG Version: 6.00 Build 0)  -->
<!DOCTYPE svg PUBLIC "-//W3C//DTD SVG 1.1//EN" "http://www.w3.org/Graphics/SVG/1.1/DTD/svg11.dtd">
<svg version="1.1" id="Layer_1" xmlns="http://www.w3.org/2000/svg" xmlns:xlink="http://www.w3.org/1999/xlink" x="0px" y="0px"
	 viewBox="0 0 334.3 164.1" enable-background="new 0 0 334.3 164.1" xml:space="preserve">
<g>
	<g>
		<path fill="#FFFFFF" d="M0.6,164v-10.2h3.1l1.9,7l1.8-7h3.1V164H8.6v-8.1l-2,8.1h-2l-2-8.1v8.1H0.6z"/>
		<path fill="#FFFFFF" d="M34,153.7h2.1v5.5c0,0.9,0,1.5,0.1,1.7c0.1,0.4,0.3,0.8,0.6,1c0.3,0.3,0.8,0.4,1.4,0.4
			c0.6,0,1-0.1,1.3-0.4c0.3-0.2,0.5-0.5,0.5-0.9c0.1-0.3,0.1-0.9,0.1-1.7v-5.7h2.1v5.4c0,1.2-0.1,2.1-0.2,2.6
			c-0.1,0.5-0.3,0.9-0.6,1.3c-0.3,0.3-0.7,0.6-1.2,0.8c-0.5,0.2-1.2,0.3-2,0.3c-1,0-1.7-0.1-2.2-0.3c-0.5-0.2-0.9-0.5-1.2-0.9
			c-0.3-0.4-0.5-0.7-0.6-1.1c-0.1-0.6-0.2-1.5-0.2-2.6V153.7z"/>
		<path fill="#FFFFFF" d="M65.8,164v-10.2h2l4.2,6.8v-6.8H74V164h-2.1l-4.1-6.7v6.7H65.8z"/>
		<path fill="#FFFFFF" d="M97.5,164v-10.2h2.1V164H97.5z"/>
		<path fill="#FFFFFF" d="M123.1,164v-10.2h7v1.7h-5v2.4h4.3v1.7h-4.3v4.4H123.1z"/>
		<path fill="#FFFFFF" d="M178.7,164v-10.2h2.1v4h4.1v-4h2.1V164h-2.1v-4.5h-4.1v4.5H178.7z"/>
		<path fill="#FFFFFF" d="M210.4,164v-10.2h2.1V164H210.4z"/>
		<path fill="#FFFFFF" d="M239.6,153.7h2.1v6.5c0,0.8-0.1,1.5-0.2,2c-0.2,0.6-0.6,1.1-1.1,1.4c-0.5,0.4-1.2,0.5-2.1,0.5
			c-1,0-1.8-0.3-2.3-0.8c-0.5-0.6-0.8-1.4-0.8-2.5l2-0.2c0,0.6,0.1,1,0.3,1.2c0.2,0.4,0.6,0.6,1,0.6c0.5,0,0.8-0.1,1-0.4
			c0.2-0.3,0.3-0.8,0.3-1.6V153.7z"/>
		<path fill="#FFFFFF" d="M269,153.7h2.1v6.5c0,0.8-0.1,1.5-0.2,2c-0.2,0.6-0.6,1.1-1.1,1.4c-0.5,0.4-1.2,0.5-2.1,0.5
			c-1,0-1.8-0.3-2.3-0.8c-0.5-0.6-0.8-1.4-0.8-2.5l1.9-0.2c0,0.6,0.1,1,0.3,1.2c0.2,0.4,0.6,0.6,1,0.6c0.5,0,0.8-0.1,1-0.4
			c0.2-0.3,0.3-0.8,0.3-1.6V153.7z"/>
		<path fill="#FFFFFF" d="M304,164h-2.2l-0.9-2.3h-4.1l-0.8,2.3h-2.2l4-10.2h2.2L304,164z M300.2,159.9l-1.4-3.8l-1.4,3.8H300.2z"/>
		<path fill="#FFFFFF" d="M325.6,164v-1.9l5.4-6.6h-4.8v-1.7h7.5v1.6l-5.6,6.9h5.8v1.7H325.6z"/>
	</g>
	<g>
		<path fill="#FFFFFF" d="M291.9,0.4h42v16.9v2.1c0,5.7-1,9.5-3,11.5c-2,2-5.8,3-11.5,3c-5.6,0-9.3-0.9-11.2-2.8
			c-1.8-1.9-2.8-5.7-2.8-11.4l0-1.8V8.4h-13.6V0.4z M312.2,8.4v9.1c0,3.6,0.4,5.9,1.2,6.9c0.8,1,2.8,1.5,5.9,1.5
			c3.5,0,5.7-0.4,6.6-1.2c0.9-0.8,1.3-2.9,1.3-6.3V8.4H312.2z"/>
		<path fill="#FFFFFF" d="M291.9,54.1h42v20.7c0,5.1-0.9,8.7-2.7,10.6c-1.8,1.9-5,2.9-9.7,2.9c-4.2,0-7.1-0.5-8.7-1.5
			c-1.6-1-2.6-3-3.2-6h-0.3c-0.3,4.6-3,7-8.1,7h-9.3v-8h7.7c4.3,0,6.5-2.1,6.5-6.4V62h-14.1V54.1z M312.8,62v11.4
			c0,2.7,0.5,4.5,1.5,5.4c1,0.9,2.9,1.3,5.9,1.3c3,0,4.9-0.4,5.8-1.2c0.9-0.8,1.3-2.5,1.3-5.1V62H312.8z"/>
		<path fill="#FFFFFF" d="M334.3,127.2c0,7.6-1.3,12.5-3.8,14.7c-2.5,2.2-8.2,3.3-17,3.3c-9.6,0-15.7-1.1-18.2-3.3
			c-2.5-2.2-3.7-7.5-3.7-16c0-7.6,1.2-12.6,3.7-14.8c2.5-2.2,7.9-3.4,16.3-3.4c10,0,16.3,1.1,18.8,3.3
			C333,113.2,334.3,118.6,334.3,127.2z M327.4,126.6c0-5.3-0.7-8.5-2.1-9.4c-1.4-0.9-6.1-1.4-14.3-1.4c-6,0-9.7,0.5-10.9,1.6
			c-1.2,1.1-1.8,4.2-1.8,9.3c0,4.9,0.7,7.9,2.1,8.9c1.4,1,5.6,1.5,12.6,1.5c7,0,11.2-0.5,12.5-1.4
			C326.8,134.8,327.4,131.7,327.4,126.6z"/>
	</g>
	<polygon fill="#FFFFFF" points="74.4,71.9 42.2,0 0,0 0,145.6 34.4,145.6 34.4,49.1 60.9,111.4 85.9,111.4 112.4,49.1 112.4,145.6 
		148.8,145.6 148.8,0 106.6,0 	"/>
	<path fill="#FFFFFF" d="M245.2,0v53.3h-49.8V0h-36.6v145.6h36.6V81.1h49.8v64.5h36.6V0H245.2z M263.6,141.6l-12.4-12.4l12.4-12.4
		l12.4,12.4L263.6,141.6z M276,104.3l-12.4,12.4l-12.4-12.4l12.2-12.2l-12.2-12.2l12.4-12.4L276,79.9l-12.2,12.2L276,104.3z"/>
</g>
</svg>
